<?xml version="1.0" encoding="UTF-8" standalone="no"?>
<!-- Created with Inkscape (http://www.inkscape.org/) -->

<svg
   xmlns:dc="http://purl.org/dc/elements/1.1/"
   xmlns:cc="http://creativecommons.org/ns#"
   xmlns:rdf="http://www.w3.org/1999/02/22-rdf-syntax-ns#"
   xmlns:svg="http://www.w3.org/2000/svg"
   xmlns="http://www.w3.org/2000/svg"
   xmlns:sodipodi="http://sodipodi.sourceforge.net/DTD/sodipodi-0.dtd"
   xmlns:inkscape="http://www.inkscape.org/namespaces/inkscape"
   width="85.030434mm"
   height="27.273321mm"
   viewBox="0 0 85.030432 27.273321"
   version="1.1"
   id="svg8"
   inkscape:version="0.92.4 (5da689c313, 2019-01-14)"
   sodipodi:docname="overwatchheaderthreshold.svg">
  <defs
     id="defs2" />
  <sodipodi:namedview
     id="base"
     pagecolor="#ffffff"
     bordercolor="#666666"
     borderopacity="1.0"
     inkscape:pageopacity="0.0"
     inkscape:pageshadow="2"
     inkscape:zoom="2"
     inkscape:cx="21.90535"
     inkscape:cy="35.232754"
     inkscape:document-units="mm"
     inkscape:current-layer="layer1"
     showgrid="false"
     inkscape:snap-global="true"
     inkscape:window-width="1920"
     inkscape:window-height="1017"
     inkscape:window-x="-8"
     inkscape:window-y="-8"
     inkscape:window-maximized="1"
     fit-margin-top="0"
     fit-margin-left="0"
     fit-margin-right="0"
     fit-margin-bottom="0" />
  <metadata
     id="metadata5">
    <rdf:RDF>
      <cc:Work
         rdf:about="">
        <dc:format>image/svg+xml</dc:format>
        <dc:type
           rdf:resource="http://purl.org/dc/dcmitype/StillImage" />
        <dc:title />
      </cc:Work>
    </rdf:RDF>
  </metadata>
  <g
     inkscape:label="Layer 1"
     inkscape:groupmode="layer"
     id="layer1"
     transform="translate(-62.76252,-54.745943)">
    <path
       style="opacity:1;fill:#ffffff;fill-opacity:1;fill-rule:nonzero;stroke:none;stroke-width:1.19999993;stroke-linecap:round;stroke-linejoin:miter;stroke-miterlimit:4;stroke-dasharray:none;stroke-dashoffset:0;stroke-opacity:1;paint-order:normal"
       d="m 106.79925,60.467183 c 0,-0.01024 0.0684,-0.104691 0.15212,-0.209873 0.37698,-0.473908 0.62494,-0.96332 0.76892,-1.517618 0.11932,-0.459353 0.12872,-1.243341 0.0201,-1.678965 -0.1479,-0.593403 -0.39493,-1.101045 -0.75842,-1.558545 -0.10113,-0.127284 -0.17555,-0.238455 -0.16537,-0.247045 0.0314,-0.02657 0.89533,0.226898 1.33532,0.391804 1.67533,0.62791 2.60034,1.553516 2.42571,2.427275 -0.0997,0.499076 -0.56865,1.029564 -1.2961,1.466282 -0.44943,0.269817 -1.24881,0.599734 -1.9203,0.792543 -0.57231,0.164328 -0.56204,0.161879 -0.56204,0.134142 z"
       id="path1558"
       inkscape:connector-curvature="0"
       inkscape:export-filename="C:\Users\Jesse\OverwatchHeader.png"
       inkscape:export-xdpi="88.602211"
       inkscape:export-ydpi="88.602211" />
    <path
       style="opacity:1;fill:#ffffff;fill-opacity:1;fill-rule:nonzero;stroke:none;stroke-width:1.20000005;stroke-linecap:round;stroke-linejoin:miter;stroke-miterlimit:4;stroke-dasharray:none;stroke-dashoffset:0;stroke-opacity:1;paint-order:normal"
       d="m 103.43613,60.41882 c -0.58301,-0.169791 -1.43027,-0.52147 -1.87104,-0.776633 -0.1809,-0.104724 -0.46028,-0.301784 -0.62082,-0.437911 -0.996941,-0.845291 -1.032071,-1.736499 -0.10204,-2.588335 0.6065,-0.555498 1.63396,-1.052945 2.84094,-1.375434 l 0.31187,-0.08333 -0.213,0.276868 c -0.28423,0.369453 -0.42251,0.614471 -0.58398,1.034702 -0.32153,0.836817 -0.34819,1.777116 -0.0738,2.604828 0.12197,0.367975 0.42971,0.935939 0.66744,1.231813 0.0987,0.122789 0.17938,0.230266 0.17938,0.238836 0,0.02749 -0.0507,0.01559 -0.53492,-0.125403 z"
       id="path1556"
       inkscape:connector-curvature="0"
       inkscape:export-filename="C:\Users\Jesse\OverwatchHeader.png"
       inkscape:export-xdpi="88.602211"
       inkscape:export-ydpi="88.602211" />
    <path
       style="opacity:1;fill:#21252e;fill-opacity:1;fill-rule:nonzero;stroke:none;stroke-width:10.00000095;stroke-linecap:round;stroke-linejoin:miter;stroke-miterlimit:4;stroke-dasharray:none;stroke-dashoffset:0;stroke-opacity:1;paint-order:normal"
       d="m 105.04369,60.369241 c -0.53511,-0.06136 -1.02217,-0.308229 -1.4104,-0.714857 -0.3355,-0.35141 -0.55317,-0.780144 -0.65575,-1.291651 -0.0305,-0.152057 -0.0354,-0.223117 -0.0351,-0.50853 4e-4,-0.300179 0.004,-0.35023 0.0416,-0.525567 0.10719,-0.503751 0.32171,-0.91964 0.65068,-1.261523 0.28916,-0.300498 0.58108,-0.487819 0.95351,-0.611841 0.23846,-0.07941 0.41338,-0.106326 0.69104,-0.106326 0.27785,0 0.45258,0.02692 0.69167,0.106535 0.3597,0.119791 0.61877,0.28256 0.90653,0.569576 0.36978,0.368823 0.58321,0.768012 0.69695,1.303579 0.0371,0.174762 0.0412,0.226372 0.0418,0.525567 7.4e-4,0.367506 -0.0229,0.53506 -0.11757,0.832589 -0.26971,0.847742 -0.9725,1.491648 -1.804,1.652834 -0.1799,0.03487 -0.48436,0.04872 -0.65098,0.02961 z"
       id="path836"
       inkscape:connector-curvature="0"
       sodipodi:nodetypes="cccccccsssccccc"
       inkscape:export-filename="C:\Users\Jesse\OverwatchHeader.png"
       inkscape:export-xdpi="88.602211"
       inkscape:export-ydpi="88.602211" />
    <path
       sodipodi:nodetypes="ccccc"
       inkscape:connector-curvature="0"
       id="path834"
       d="m 105.27931,56.00152 c -0.67675,1.1e-5 -1.22536,0.832871 -1.2254,1.860291 0,1.02753 0.54859,1.860559 1.2254,1.860569 0.67681,-9e-6 1.22545,-0.833039 1.22539,-1.860569 0,-1.027422 -0.54866,-1.860282 -1.22539,-1.860291 z"
       style="color:#000000;font-style:normal;font-variant:normal;font-weight:normal;font-stretch:normal;font-size:medium;line-height:normal;font-family:sans-serif;font-variant-ligatures:normal;font-variant-position:normal;font-variant-caps:normal;font-variant-numeric:normal;font-variant-alternates:normal;font-feature-settings:normal;text-indent:0;text-align:start;text-decoration:none;text-decoration-line:none;text-decoration-style:solid;text-decoration-color:#000000;letter-spacing:normal;word-spacing:normal;text-transform:none;writing-mode:lr-tb;direction:ltr;text-orientation:mixed;dominant-baseline:auto;baseline-shift:baseline;text-anchor:start;white-space:normal;shape-padding:0;clip-rule:nonzero;display:inline;overflow:visible;visibility:visible;opacity:1;isolation:auto;mix-blend-mode:normal;color-interpolation:sRGB;color-interpolation-filters:linearRGB;solid-color:#000000;solid-opacity:1;vector-effect:none;fill:#f3e4ff;fill-opacity:1;fill-rule:nonzero;stroke:none;stroke-width:6.95435905;stroke-linecap:round;stroke-linejoin:miter;stroke-miterlimit:4;stroke-dasharray:none;stroke-dashoffset:0;stroke-opacity:1;paint-order:fill markers stroke;color-rendering:auto;image-rendering:auto;shape-rendering:auto;text-rendering:auto;enable-background:accumulate"
       inkscape:export-filename="C:\Users\Jesse\OverwatchHeader.png"
       inkscape:export-xdpi="88.602211"
       inkscape:export-ydpi="88.602211" />
    <path
       style="color:#000000;font-style:normal;font-variant:normal;font-weight:normal;font-stretch:normal;font-size:medium;line-height:normal;font-family:sans-serif;font-variant-ligatures:normal;font-variant-position:normal;font-variant-caps:normal;font-variant-numeric:normal;font-variant-alternates:normal;font-feature-settings:normal;text-indent:0;text-align:start;text-decoration:none;text-decoration-line:none;text-decoration-style:solid;text-decoration-color:#000000;letter-spacing:normal;word-spacing:normal;text-transform:none;writing-mode:lr-tb;direction:ltr;text-orientation:mixed;dominant-baseline:auto;baseline-shift:baseline;text-anchor:start;white-space:normal;shape-padding:0;clip-rule:nonzero;display:inline;overflow:visible;visibility:visible;opacity:1;isolation:auto;mix-blend-mode:normal;color-interpolation:sRGB;color-interpolation-filters:linearRGB;solid-color:#000000;solid-opacity:1;vector-effect:none;fill:#21252e;fill-opacity:1;fill-rule:nonzero;stroke:none;stroke-width:6.95435905;stroke-linecap:round;stroke-linejoin:miter;stroke-miterlimit:4;stroke-dasharray:none;stroke-dashoffset:0;stroke-opacity:1;paint-order:fill markers stroke;color-rendering:auto;image-rendering:auto;shape-rendering:auto;text-rendering:auto;enable-background:accumulate"
       d="m 105.27931,54.745943 c -1.45873,3e-6 -2.78336,0.306983 -3.78,0.834407 -0.99665,0.527424 -1.715237,1.317654 -1.715237,2.281708 0,0.964055 0.718587,1.753851 1.715237,2.281275 0.99664,0.527424 2.32127,0.834621 3.78,0.834623 1.45874,0 2.78356,-0.307199 3.78021,-0.834623 0.99666,-0.527424 1.71524,-1.317219 1.71524,-2.281275 0,-0.964057 -0.71858,-1.754284 -1.71524,-2.281708 -0.99665,-0.527424 -2.32147,-0.834407 -3.78021,-0.834407 z m 0,0.973475 c 1.09408,-10e-7 1.99729,0.94086 1.99729,2.14264 0,1.20178 -0.90321,2.142424 -1.99729,2.142424 -1.09408,-4e-6 -1.99706,-0.940647 -1.99706,-2.142424 0,-1.201776 0.90298,-2.142635 1.99706,-2.14264 z m -2.18452,0.18875 c -0.42888,0.529132 -0.68752,1.213159 -0.68752,1.95389 0,0.740623 0.25855,1.424357 0.68732,1.953457 -0.44413,-0.120254 -0.84403,-0.274043 -1.18219,-0.452999 -0.83247,-0.440542 -1.2451,-0.98745 -1.2451,-1.500458 0,-0.513008 0.41263,-1.060348 1.2451,-1.500891 0.33821,-0.178982 0.73821,-0.332785 1.18239,-0.452999 z m 4.36925,0 c 0.44412,0.120207 0.84402,0.274044 1.18219,0.452999 0.83247,0.440543 1.24532,0.987882 1.24532,1.500891 0,0.513009 -0.41285,1.059916 -1.24532,1.500458 -0.33812,0.178928 -0.73793,0.332752 -1.18198,0.452999 0.42883,-0.529101 0.68731,-1.212831 0.68731,-1.953457 0,-0.740735 -0.25857,-1.424756 -0.68752,-1.95389 z"
       id="path2358"
       inkscape:connector-curvature="0"
       sodipodi:nodetypes="ccscccscccscsccsccsccccsccsc"
       inkscape:export-filename="C:\Users\Jesse\OverwatchHeader.png"
       inkscape:export-xdpi="88.602211"
       inkscape:export-ydpi="88.602211" />
    <g
       id="g1052"
       transform="translate(-0.25041269)">
      <path
         id="path1013"
         d="M 80.804024,75.273577 V 62.962428 h -1.325641 v 5.416538 H 74.65496 v -5.416538 h -1.326126 v 12.311149 h 1.326126 v -5.573398 h 4.823423 v 5.573398 z"
         style="font-style:normal;font-variant:normal;font-weight:bold;font-stretch:normal;font-size:22.57777786px;line-height:1;font-family:NovaMono;-inkscape-font-specification:'NovaMono Bold';text-align:center;letter-spacing:0px;word-spacing:0px;text-anchor:middle;fill:#21252e;fill-opacity:1;stroke:#21252e;stroke-width:0.80000001;stroke-miterlimit:4;stroke-dasharray:none;stroke-opacity:1"
         inkscape:connector-curvature="0" />
      <path
         id="path1007"
         d="m 90.686549,75.273577 -2.572556,-5.176889 c 0.397794,-0.181651 0.762344,-0.440295 1.093845,-0.776074 0.718257,-0.721098 1.077326,-1.599338 1.077326,-2.634195 0,-1.023849 -0.361811,-1.901605 -1.085586,-2.633711 -0.712738,-0.726602 -1.580069,-1.09028 -2.6022,-1.09028 h -2.428232 l -1.326126,0.05326 v 12.257893 h 1.326126 v -4.863168 h 2.428232 0.173966 l 2.314525,4.863168 z m 2.399562,-12.311149 v 12.302434 h 6.646662 l 0.580217,-1.321213 h -5.900753 v -4.24347 h 4.243213 l 0.58021,-1.321213 h -4.823423 v -4.095325 h 4.243213 l 0.58021,-1.321213 z m 37.650499,0 v 12.306307 h 6.64666 l 0.58021,-1.321213 h -5.90075 V 62.962428 Z m -46.567464,1.321213 h 2.453015 c 0.657472,0 1.22095,0.23684 1.690578,0.710231 0.469631,0.473393 0.70461,1.037503 0.704613,1.692547 0,0.66605 -0.234982,1.232888 -0.704613,1.700777 -0.469628,0.467887 -1.033106,0.702 -1.690578,0.702 h -2.453015 z"
         style="font-style:normal;font-variant:normal;font-weight:bold;font-stretch:normal;font-size:22.57777786px;line-height:1;font-family:NovaMono;-inkscape-font-specification:'NovaMono Bold';text-align:center;letter-spacing:0px;word-spacing:0px;text-anchor:middle;fill:#21252e;fill-opacity:1;stroke:#21252e;stroke-width:0.80000001;stroke-miterlimit:4;stroke-dasharray:none;stroke-opacity:1"
         inkscape:connector-curvature="0" />
      <path
         id="path1003"
         d="m 105.71662,75.273577 c 1.0387,0 1.91972,-0.353222 2.6435,-1.059294 0.71826,-0.700642 1.07733,-1.566901 1.07733,-2.598854 v -0.02421 c 0,-1.010227 -0.36454,-1.862976 -1.09385,-2.558186 -0.6851,-0.651758 -1.56613,-1.037601 -2.6435,-1.15709 -0.65749,-0.07061 -1.15207,-0.268642 -1.48357,-0.594521 -0.3536,-0.347605 -0.53065,-0.763268 -0.53065,-1.246656 0,-0.483387 0.17705,-0.90185 0.53065,-1.254886 0.34255,-0.336742 0.75956,-0.504956 1.25129,-0.504956 0.49172,0 0.91743,0.174296 1.27656,0.521901 0.34252,0.331311 0.51908,0.749288 0.53015,1.254402 v 0.643419 l 1.32613,-0.586775 v -0.08085 c 0,-0.836424 -0.3066,-1.559179 -0.91988,-2.167487 -0.60223,-0.597446 -1.34001,-0.896139 -2.21296,-0.896139 -0.86191,0 -1.59646,0.298693 -2.20422,0.896139 -0.60776,0.592014 -0.91162,1.317084 -0.91162,2.175233 0,0.852718 0.30934,1.580586 0.92814,2.183463 0.59671,0.586583 1.41978,0.920696 2.46954,1.002166 0.61328,0.04345 1.17949,0.307209 1.69884,0.790597 0.45305,0.423644 0.67983,0.974901 0.67983,1.653816 0,0.646328 -0.23498,1.202698 -0.70461,1.669793 -0.46963,0.461662 -1.03858,0.692801 -1.7071,0.692801 -0.65748,0 -1.22368,-0.231139 -1.69884,-0.692801 -0.47516,-0.456233 -0.71287,-1.010288 -0.71287,-1.662047 V 70.97201 l -1.32613,0.570314 v 0.106027 c 0,0.98307 0.36455,1.838134 1.09385,2.565932 0.71273,0.706072 1.59423,1.059294 2.64399,1.059294 z"
         style="font-style:normal;font-variant:normal;font-weight:bold;font-stretch:normal;font-size:22.57777786px;line-height:1;font-family:NovaMono;-inkscape-font-specification:'NovaMono Bold';text-align:center;letter-spacing:0px;word-spacing:0px;text-anchor:middle;fill:#21252e;fill-opacity:1;stroke:#21252e;stroke-width:0.80000001;stroke-miterlimit:4;stroke-dasharray:none;stroke-opacity:1"
         inkscape:connector-curvature="0" />
      <path
         id="path999"
         d="M 118.99293,75.273577 V 62.962428 h -1.32563 v 5.416538 h -4.82343 v -5.416538 h -1.32612 v 12.311149 h 1.32612 v -5.573398 h 4.82343 v 5.573398 z"
         style="font-style:normal;font-variant:normal;font-weight:bold;font-stretch:normal;font-size:22.57777786px;line-height:1;font-family:NovaMono;-inkscape-font-specification:'NovaMono Bold';text-align:center;letter-spacing:0px;word-spacing:0px;text-anchor:middle;fill:#21252e;fill-opacity:1;stroke:#21252e;stroke-width:0.80000001;stroke-miterlimit:4;stroke-dasharray:none;stroke-opacity:1"
         inkscape:connector-curvature="0" />
      <path
         id="path995"
         d="m 124.80281,75.273577 c 1.03318,0 1.9142,-0.353222 2.64351,-1.059294 0.72929,-0.711504 1.09433,-1.566568 1.09433,-2.565932 v -5.059244 c 0,-0.999364 -0.36504,-1.852597 -1.09433,-2.55867 -0.72931,-0.711503 -1.61033,-1.06704 -2.64351,-1.06704 -1.03318,0 -1.91468,0.355537 -2.64399,1.06704 -0.7293,0.706073 -1.09384,1.559306 -1.09384,2.55867 v 5.059244 c 0,0.999364 0.36454,1.854428 1.09384,2.565932 0.72378,0.706072 1.60528,1.059294 2.64399,1.059294 z m 0,-11.063525 c 0.65748,0 1.22369,0.230654 1.69884,0.692318 0.46965,0.456231 0.70736,1.010286 0.71288,1.662046 v 5.108141 c -0.006,0.65176 -0.24324,1.205815 -0.71288,1.662047 -0.47515,0.461662 -1.04136,0.692801 -1.69884,0.692801 -0.66853,0 -1.23747,-0.231139 -1.7071,-0.692801 -0.46962,-0.461663 -0.70461,-1.015719 -0.70461,-1.662047 v -5.108141 c 0,-0.65176 0.23499,-1.205815 0.70461,-1.662046 0.46963,-0.461664 1.14162,-0.692318 1.7071,-0.692318 z"
         style="font-style:normal;font-variant:normal;font-weight:bold;font-stretch:normal;font-size:22.57777786px;line-height:1;font-family:NovaMono;-inkscape-font-specification:'NovaMono Bold';text-align:center;letter-spacing:0px;word-spacing:0px;text-anchor:middle;fill:#21252e;fill-opacity:1;stroke:#21252e;stroke-width:0.80000001;stroke-miterlimit:4;stroke-dasharray:none;stroke-opacity:1"
         inkscape:connector-curvature="0" />
      <path
         id="path993"
         d="m 144.03965,75.273577 c 0.97371,-0.0307 1.81284,-0.377784 2.50938,-1.061231 0.72931,-0.721097 1.09434,-1.58795 1.09434,-2.60079 v -4.982749 c 0,-1.01284 -0.36503,-1.877451 -1.09434,-2.593044 -0.7071,-0.699151 -1.55987,-1.05206 -2.55263,-1.073335 h -3.84523 v 12.311149 z m -0.14238,-11.055778 h 0.008 c 0.65747,0 1.22368,0.233628 1.69884,0.701516 0.47515,0.467888 0.71287,1.029758 0.71287,1.6848 v 5.032132 c 0,0.660547 -0.23772,1.221933 -0.71287,1.684316 -0.48068,0.467888 -1.0469,0.702001 -1.69884,0.702001 h -0.008 -2.41997 v -9.796535 z"
         style="font-style:normal;font-variant:normal;font-weight:bold;font-stretch:normal;font-size:22.57777786px;line-height:1;font-family:NovaMono;-inkscape-font-specification:'NovaMono Bold';text-align:center;letter-spacing:0px;word-spacing:0px;text-anchor:middle;fill:#21252e;fill-opacity:1;stroke:#21252e;stroke-width:0.80000001;stroke-miterlimit:4;stroke-dasharray:none;stroke-opacity:1"
         inkscape:connector-curvature="0" />
      <path
         id="rect1040"
         transform="matrix(0.26458333,0,0,0.26458333,62.514804,54.745943)"
         d="m 1.8945312,29.542969 v 8.017578 H 14.900391 v 41.537109 h 8.03125 V 37.560547 h 13.007812 v -8.017578 z"
         style="opacity:1;fill:#21252e;fill-opacity:1;fill-rule:nonzero;stroke:none;stroke-width:3.02362204;stroke-linecap:round;stroke-linejoin:miter;stroke-miterlimit:4;stroke-dasharray:none;stroke-dashoffset:0;stroke-opacity:1;paint-order:normal"
         inkscape:connector-curvature="0" />
    </g>
    <g
       aria-label="SUSTAIN  CONSERVE  PROLONG"
       transform="scale(0.95236241,1.0500204)"
       style="font-style:normal;font-variant:normal;font-weight:bold;font-stretch:normal;font-size:5.54649115px;line-height:1;font-family:Mesmerize;-inkscape-font-specification:'Mesmerize Bold';text-align:center;letter-spacing:0px;word-spacing:0px;text-anchor:middle;fill:#21252e;fill-opacity:1;stroke:none;stroke-width:0.26458329"
       id="text851">
      <path
         d="m 68.869302,74.146326 c -0.449266,-0.266231 -0.93181,-0.388254 -1.408809,-0.388254 -0.909624,0 -1.519738,0.438173 -1.519738,1.231321 0,0.526917 0.266231,0.831974 0.698858,1.053833 0.338336,0.171941 0.909624,0.371615 1.037193,0.415987 0.216314,0.07765 0.321697,0.171941 0.321697,0.338336 0,0.199674 -0.160848,0.327243 -0.526917,0.327243 -0.349429,0 -0.953996,-0.116476 -1.35889,-0.338336 l -0.210767,0.931811 c 0.504731,0.310603 1.192496,0.3938 1.59739,0.3938 0.981729,0 1.519738,-0.499184 1.519738,-1.275693 0,-0.471451 -0.199673,-0.754322 -0.61566,-0.981729 -0.321697,-0.177487 -1.037194,-0.438172 -1.137031,-0.476998 -0.194127,-0.07765 -0.31615,-0.160848 -0.31615,-0.327243 0,-0.194127 0.166395,-0.305057 0.482545,-0.305057 0.366068,0 0.854159,0.144209 1.214681,0.338336 z"
         style="fill:#21252e;fill-opacity:1;stroke-width:0.26458329"
         id="path827" />
      <path
         d="m 69.609672,73.813537 v 2.673408 c 0,1.042741 0.499184,1.625122 1.58075,1.625122 1.020554,0 1.586296,-0.52137 1.586296,-1.630668 v -2.667862 h -0.987275 v 2.678955 c 0,0.404894 -0.188581,0.582382 -0.587928,0.582382 -0.415987,0 -0.576835,-0.188581 -0.576835,-0.582382 v -2.678955 z"
         style="fill:#21252e;fill-opacity:1;stroke-width:0.26458329"
         id="path829" />
      <path
         d="m 76.333232,74.146326 c -0.449266,-0.266231 -0.93181,-0.388254 -1.408809,-0.388254 -0.909624,0 -1.519738,0.438173 -1.519738,1.231321 0,0.526917 0.266231,0.831974 0.698858,1.053833 0.338336,0.171941 0.909624,0.371615 1.037194,0.415987 0.216313,0.07765 0.321696,0.171941 0.321696,0.338336 0,0.199674 -0.160848,0.327243 -0.526917,0.327243 -0.349429,0 -0.953996,-0.116476 -1.35889,-0.338336 l -0.210767,0.931811 c 0.504731,0.310603 1.192496,0.3938 1.59739,0.3938 0.981729,0 1.519738,-0.499184 1.519738,-1.275693 0,-0.471451 -0.199673,-0.754322 -0.61566,-0.981729 -0.321697,-0.177487 -1.037194,-0.438172 -1.137031,-0.476998 -0.194127,-0.07765 -0.31615,-0.160848 -0.31615,-0.327243 0,-0.194127 0.166395,-0.305057 0.482545,-0.305057 0.366068,0 0.85416,0.144209 1.214682,0.338336 z"
         style="fill:#21252e;fill-opacity:1;stroke-width:0.26458329"
         id="path831" />
      <path
         d="m 76.862836,73.813537 v 1.037194 h 1.037193 v 3.205871 h 1.020555 v -3.205871 h 1.04274 v -1.037194 z"
         style="fill:#21252e;fill-opacity:1;stroke-width:0.26458329"
         id="path833" />
      <path
         d="m 81.791153,73.758072 -1.91354,4.29853 h 1.053834 l 0.221859,-0.543556 h 1.314519 l 0.221859,0.543556 h 1.103752 l -1.919086,-4.29853 z m 0.388254,3.03393 h -0.72659 l 0.366068,-0.887438 z"
         style="fill:#21252e;fill-opacity:1;stroke-width:0.26458329"
         id="path835" />
      <path
         d="m 84.256915,73.813537 v 4.243065 h 1.015008 v -4.243065 z"
         style="fill:#21252e;fill-opacity:1;stroke-width:0.26458329"
         id="path837" />
      <path
         d="m 86.076857,73.758072 v 4.29853 h 0.976183 v -2.096573 l 2.41827,2.152038 h 0.0721 v -4.29853 h -0.976182 v 2.091027 l -2.423817,-2.146492 z"
         style="fill:#21252e;fill-opacity:1;stroke-width:0.26458329"
         id="path839" />
      <path
         d="m 97.110648,74.351546 c -0.399347,-0.366068 -0.937357,-0.593474 -1.569657,-0.593474 -1.198042,0 -2.057748,0.820881 -2.057748,2.146492 0,1.331158 0.865253,2.207503 2.035562,2.207503 0.660033,0 1.303426,-0.277324 1.630669,-0.892985 l -0.765416,-0.637846 c -0.138662,0.293964 -0.460359,0.493638 -0.865253,0.493638 -0.532463,0 -1.015008,-0.338336 -1.015008,-1.131485 0,-0.782055 0.465906,-1.148123 1.031648,-1.148123 0.41044,0 0.698858,0.194127 0.920717,0.393801 z"
         style="fill:#21252e;fill-opacity:1;stroke-width:0.26458329"
         id="path841" />
      <path
         d="m 99.514879,73.758072 c -1.270147,0 -1.980097,1.05938 -1.980097,2.174224 0,1.098206 0.687764,2.179771 1.980097,2.179771 1.281241,0 1.991191,-1.064926 1.991191,-2.174224 0,-1.114845 -0.70995,-2.179771 -1.991191,-2.179771 z m 0.0055,1.037194 c 0.571285,0 0.970635,0.421533 0.970635,1.142577 0,0.72659 -0.39935,1.137031 -0.965088,1.137031 -0.582382,0 -0.970636,-0.438173 -0.970636,-1.148124 0,-0.704404 0.388254,-1.131484 0.965089,-1.131484 z"
         style="fill:#21252e;fill-opacity:1;stroke-width:0.26458329"
         id="path843" />
      <path
         d="m 102.17468,73.758072 v 4.29853 h 0.97618 v -2.096573 l 2.41827,2.152038 h 0.0721 v -4.29853 h -0.97618 v 2.091027 l -2.42382,-2.146492 z"
         style="fill:#21252e;fill-opacity:1;stroke-width:0.26458329"
         id="path845" />
      <path
         d="m 109.25469,74.146326 c -0.44927,-0.266231 -0.93181,-0.388254 -1.40881,-0.388254 -0.90962,0 -1.51974,0.438173 -1.51974,1.231321 0,0.526917 0.26623,0.831974 0.69886,1.053833 0.33834,0.171941 0.90962,0.371615 1.03719,0.415987 0.21632,0.07765 0.3217,0.171941 0.3217,0.338336 0,0.199674 -0.16085,0.327243 -0.52692,0.327243 -0.34943,0 -0.95399,-0.116476 -1.35889,-0.338336 l -0.21076,0.931811 c 0.50473,0.310603 1.19249,0.3938 1.59739,0.3938 0.98173,0 1.51973,-0.499184 1.51973,-1.275693 0,-0.471451 -0.19967,-0.754322 -0.61566,-0.981729 -0.32169,-0.177487 -1.03719,-0.438172 -1.13703,-0.476998 -0.19412,-0.07765 -0.31615,-0.160848 -0.31615,-0.327243 0,-0.194127 0.1664,-0.305057 0.48255,-0.305057 0.36607,0 0.85416,0.144209 1.21468,0.338336 z"
         style="fill:#21252e;fill-opacity:1;stroke-width:0.26458329"
         id="path847" />
      <path
         d="m 110.03943,73.813537 v 4.243065 h 2.78989 v -1.037193 h -1.77488 v -0.643393 h 1.73605 v -0.992822 h -1.73605 v -0.532463 h 1.75824 v -1.037194 z"
         style="fill:#21252e;fill-opacity:1;stroke-width:0.26458329"
         id="path849" />
      <path
         d="m 113.53849,73.813537 v 4.243065 h 1.01501 v -1.752691 h 0.47145 l 0.69331,1.752691 h 1.13148 l -0.84306,-1.907992 c 0.36607,-0.216314 0.53801,-0.6323 0.53801,-1.081566 0,-0.665579 -0.37162,-1.253507 -1.16477,-1.253507 z m 1.01501,1.037194 h 0.65448 c 0.21077,0 0.31615,0.144208 0.31615,0.349429 0,0.20522 -0.0998,0.343882 -0.31615,0.343882 h -0.65448 z"
         style="fill:#21252e;fill-opacity:1;stroke-width:0.26458329"
         id="path851" />
      <path
         d="m 116.81811,73.813537 1.91354,4.29853 h 0.0832 l 1.91908,-4.29853 h -1.06492 l -0.88189,2.146492 -0.86526,-2.146492 z"
         style="fill:#21252e;fill-opacity:1;stroke-width:0.26458329"
         id="path853" />
      <path
         d="m 121.19741,73.813537 v 4.243065 h 2.78989 v -1.037193 h -1.77488 v -0.643393 h 1.73605 v -0.992822 h -1.73605 v -0.532463 h 1.75824 v -1.037194 z"
         style="fill:#21252e;fill-opacity:1;stroke-width:0.26458329"
         id="path855" />
      <path
         d="m 127.96803,73.813537 v 4.243065 h 1.01501 v -1.519738 h 0.64339 c 0.83198,0 1.24796,-0.615661 1.24796,-1.381076 0,-0.782056 -0.43817,-1.342251 -1.24796,-1.342251 z m 1.01501,1.037194 h 0.63785 c 0.21631,0 0.31615,0.149755 0.31615,0.354975 0,0.20522 -0.0998,0.366068 -0.31615,0.366068 h -0.63785 z"
         style="fill:#21252e;fill-opacity:1;stroke-width:0.26458329"
         id="path857" />
      <path
         d="m 131.45626,73.813537 v 4.243065 h 1.015 v -1.752691 h 0.47146 l 0.69331,1.752691 h 1.13148 l -0.84307,-1.907992 c 0.36607,-0.216314 0.53801,-0.6323 0.53801,-1.081566 0,-0.665579 -0.37161,-1.253507 -1.16476,-1.253507 z m 1.015,1.037194 h 0.65449 c 0.21077,0 0.31615,0.144208 0.31615,0.349429 0,0.20522 -0.0998,0.343882 -0.31615,0.343882 h -0.65449 z"
         style="fill:#21252e;fill-opacity:1;stroke-width:0.26458329"
         id="path859" />
      <path
         d="m 137.00786,73.758072 c -1.27015,0 -1.9801,1.05938 -1.9801,2.174224 0,1.098206 0.68777,2.179771 1.9801,2.179771 1.28124,0 1.99119,-1.064926 1.99119,-2.174224 0,-1.114845 -0.70995,-2.179771 -1.99119,-2.179771 z m 0.006,1.037194 c 0.57129,0 0.97064,0.421533 0.97064,1.142577 0,0.72659 -0.39935,1.137031 -0.96509,1.137031 -0.58238,0 -0.97064,-0.438173 -0.97064,-1.148124 0,-0.704404 0.38826,-1.131484 0.96509,-1.131484 z"
         style="fill:#21252e;fill-opacity:1;stroke-width:0.26458329"
         id="path861" />
      <path
         d="m 139.66766,73.813537 v 4.243065 h 2.53475 v -1.037193 h -1.51974 v -3.205872 z"
         style="fill:#21252e;fill-opacity:1;stroke-width:0.26458329"
         id="path863" />
      <path
         d="m 144.48262,73.758072 c -1.27015,0 -1.9801,1.05938 -1.9801,2.174224 0,1.098206 0.68777,2.179771 1.9801,2.179771 1.28124,0 1.99119,-1.064926 1.99119,-2.174224 0,-1.114845 -0.70995,-2.179771 -1.99119,-2.179771 z m 0.006,1.037194 c 0.57128,0 0.97063,0.421533 0.97063,1.142577 0,0.72659 -0.39935,1.137031 -0.96509,1.137031 -0.58238,0 -0.97063,-0.438173 -0.97063,-1.148124 0,-0.704404 0.38825,-1.131484 0.96509,-1.131484 z"
         style="fill:#21252e;fill-opacity:1;stroke-width:0.26458329"
         id="path865" />
      <path
         d="m 147.14243,73.758072 v 4.29853 h 0.97618 v -2.096573 l 2.41827,2.152038 h 0.0721 v -4.29853 h -0.97619 v 2.091027 l -2.42381,-2.146492 z"
         style="fill:#21252e;fill-opacity:1;stroke-width:0.26458329"
         id="path867" />
      <path
         d="m 153.44038,75.560681 v 0.843067 h 0.80424 c -0.0887,0.42708 -0.42153,0.671126 -0.90408,0.671126 -0.68221,0 -1.04274,-0.488092 -1.04274,-1.125938 0,-0.676672 0.4049,-1.15367 1.10376,-1.15367 0.37161,0 0.72104,0.133115 0.94845,0.360522 l 0.53801,-0.881892 c -0.37162,-0.310604 -0.90963,-0.515824 -1.50865,-0.515824 -1.09821,0 -2.10212,0.687765 -2.10212,2.135399 0,1.342251 0.86525,2.218596 2.03002,2.218596 1.03164,0 1.87471,-0.687765 1.87471,-2.068841 0,-0.221859 -0.0222,-0.371615 -0.0555,-0.482545 z"
         style="fill:#21252e;fill-opacity:1;stroke-width:0.26458329"
         id="path869" />
    </g>
  </g>
</svg>
